<?xml version="1.0" encoding="utf-8"?>
<!-- Generator: Adobe Illustrator 21.1.0, SVG Export Plug-In . SVG Version: 6.00 Build 0)  -->
<svg version="1.1" id="Layer_1" xmlns="http://www.w3.org/2000/svg" xmlns:xlink="http://www.w3.org/1999/xlink" x="0px" y="0px"
	 viewBox="0 0 1922.9 680" style="enable-background:new 0 0 1922.9 680;" xml:space="preserve">
<style type="text/css">
	.st0{fill:#898989;}
	.st1{fill:#898989;}
</style>
<path class="st0" d="M1769,76.2h-129c-2.9,0-5.3,2.4-5.3,5.3v519.2c0,2.9,2.4,5.3,5.3,5.3h89.4c23.8,0,41.9-2,54.4-6
	c52-16.9,78-54.5,78-112.8V168.9C1861.8,117.7,1820.2,76.2,1769,76.2z M1780.3,487c0,18-7.4,30-22.2,36c-4.2,1.5-12,2.3-23.3,2.3
	h-18.7V156.5h64.2V487z"/>
<g>
	<path class="st0" d="M1472.6,605.9h70.9c2.9,0,5.3-2.4,5.3-5.3V81.4c0-2.9-2.4-5.3-5.3-5.3h-70.9c-2.9,0-5.3,2.4-5.3,5.3v519.2
		C1467.3,603.5,1469.7,605.9,1472.6,605.9z"/>
</g>
<path class="st1" d="M369.7,604.4h70.6c3,0,5.4-2.4,5.4-5.4V80.1c0-3-2.4-5.4-5.4-5.4h-70.6c-3,0-5.4,2.4-5.4,5.4v518.8
	C364.2,601.9,366.7,604.4,369.7,604.4z"/>
<path class="st1" d="M292.2,335.9V167.4c0-51.2-41.5-92.7-92.7-92.7h-129c-2.9,0-5.3,2.4-5.3,5.3v519c0,3,2.4,5.4,5.4,5.4h70.6
	c3,0,5.4-2.4,5.4-5.4V454.8h0l77.5,138.5c3.8,6.8,11,11.1,18.9,11.1h67.1c4.2,0,6.8-4.5,4.7-8.2L226.7,444
	C270.3,425.3,292.2,389.3,292.2,335.9z M146.6,155h64.2v181c0,18-7.4,30-22.2,36c-4.2,1.5-12,2.3-23.3,2.3h-18.7V155z"/>
<path class="st1" d="M1327.6,335.9V167.4c0-51.2-41.5-92.7-92.7-92.7H1106c-3,0-5.4,2.4-5.4,5.4v518.8c0,3,2.4,5.4,5.4,5.4h70.6
	c3,0,5.4-2.4,5.4-5.4V454.8h0l77.5,138.5c3.8,6.8,11,11.1,18.9,11.1h67.1c4.2,0,6.8-4.5,4.7-8.2L1262.1,444
	C1305.7,425.3,1327.6,389.3,1327.6,335.9z M1182,155h64.2v181c0,18-7.4,30-22.2,36c-4.2,1.5-12,2.3-23.3,2.3H1182V155z"/>
<path class="st1" d="M1039.1,149.5V80.1c0-3-2.4-5.4-5.4-5.4H833.4c-3,0-5.4,2.4-5.4,5.4v518.8c0,3,2.4,5.4,5.4,5.4h200.3
	c3,0,5.4-2.4,5.4-5.4v-69.4c0-3-2.4-5.4-5.4-5.4H909.3V379.8h103.9c3,0,5.4-2.4,5.4-5.4v-69.7c0-3-2.4-5.4-5.4-5.4H909.3V155h124.3
	C1036.7,155,1039.1,152.5,1039.1,149.5z"/>
<path class="st1" d="M495.5,81L581,599.8c0.4,2.6,2.7,4.5,5.4,4.5h102.2c2.7,0,4.9-1.9,5.4-4.5L779.3,81c0.5-3.3-2-6.3-5.4-6.3
	h-71.2c-2.7,0-5,2-5.4,4.7l-60,420l-60-420c-0.4-2.7-2.7-4.7-5.4-4.7h-71.2C497.5,74.7,495,77.7,495.5,81z"/>
</svg>
